<?xml version="1.0" encoding="UTF-8"?>
<svg xmlns="http://www.w3.org/2000/svg" xmlns:xlink="http://www.w3.org/1999/xlink" width="768pt" height="767.999994pt" viewBox="0 0 768 767.999994" version="1.2">
<g id="surface1">
<path style=" stroke:none;fill-rule:nonzero;fill:rgb(85.099792%,85.099792%,85.099792%);fill-opacity:1;" d="M 376.46875 45.179688 C 374.398438 45.179688 372.332031 45.28125 370.269531 45.484375 C 368.210938 45.6875 366.164062 45.992188 364.132812 46.394531 C 362.101562 46.800781 360.09375 47.304688 358.109375 47.902344 C 356.128906 48.503906 354.179688 49.203125 352.265625 49.996094 C 350.351562 50.789062 348.484375 51.671875 346.65625 52.648438 C 344.828125 53.625 343.054688 54.6875 341.332031 55.839844 C 339.609375 56.992188 337.949219 58.222656 336.347656 59.535156 C 334.746094 60.851562 333.214844 62.242188 331.75 63.703125 C 330.285156 65.167969 328.894531 66.703125 327.582031 68.304688 C 326.265625 69.90625 325.035156 71.566406 323.882812 73.289062 C 322.730469 75.011719 321.667969 76.785156 320.691406 78.613281 C 319.714844 80.4375 318.832031 82.308594 318.039062 84.222656 C 317.246094 86.136719 316.546875 88.085938 315.949219 90.066406 C 315.347656 92.050781 314.84375 94.054688 314.4375 96.085938 C 314.035156 98.121094 313.730469 100.164062 313.527344 102.226562 C 313.324219 104.289062 313.222656 106.355469 313.222656 108.425781 C 313.222656 110.496094 313.324219 112.5625 313.527344 114.625 C 313.730469 116.6875 314.035156 118.734375 314.4375 120.765625 C 314.84375 122.796875 315.347656 124.804688 315.949219 126.785156 C 316.546875 128.769531 317.246094 130.714844 318.039062 132.628906 C 318.832031 134.542969 319.714844 136.414062 320.691406 138.242188 C 321.667969 140.066406 322.730469 141.839844 323.882812 143.5625 C 325.035156 145.285156 326.265625 146.949219 327.582031 148.550781 C 328.894531 150.152344 330.285156 151.683594 331.75 153.148438 C 333.214844 154.613281 334.746094 156.003906 336.347656 157.316406 C 337.949219 158.628906 339.609375 159.863281 341.332031 161.011719 C 343.054688 162.164062 344.828125 163.226562 346.65625 164.203125 C 348.484375 165.179688 350.351562 166.066406 352.265625 166.859375 C 354.179688 167.652344 356.128906 168.347656 358.109375 168.949219 C 360.09375 169.550781 362.101562 170.054688 364.132812 170.457031 C 366.164062 170.859375 368.210938 171.164062 370.269531 171.367188 C 372.332031 171.570312 374.398438 171.671875 376.46875 171.671875 C 378.542969 171.671875 380.609375 171.570312 382.667969 171.367188 C 384.730469 171.164062 386.777344 170.859375 388.808594 170.457031 C 390.839844 170.054688 392.847656 169.550781 394.828125 168.949219 C 396.8125 168.347656 398.757812 167.652344 400.671875 166.859375 C 402.585938 166.066406 404.457031 165.179688 406.285156 164.203125 C 408.109375 163.226562 409.886719 162.164062 411.605469 161.011719 C 413.328125 159.863281 414.992188 158.628906 416.59375 157.316406 C 418.195312 156.003906 419.726562 154.613281 421.191406 153.148438 C 422.65625 151.683594 424.046875 150.152344 425.359375 148.550781 C 426.671875 146.949219 427.90625 145.285156 429.058594 143.5625 C 430.207031 141.839844 431.269531 140.066406 432.246094 138.242188 C 433.222656 136.414062 434.109375 134.542969 434.902344 132.628906 C 435.695312 130.714844 436.390625 128.769531 436.992188 126.785156 C 437.59375 124.804688 438.097656 122.796875 438.5 120.765625 C 438.90625 118.734375 439.207031 116.6875 439.410156 114.625 C 439.613281 112.5625 439.714844 110.496094 439.714844 108.425781 C 439.714844 106.355469 439.613281 104.289062 439.410156 102.226562 C 439.207031 100.164062 438.90625 98.121094 438.5 96.085938 C 438.097656 94.054688 437.59375 92.050781 436.992188 90.066406 C 436.390625 88.085938 435.695312 86.136719 434.902344 84.222656 C 434.109375 82.308594 433.222656 80.4375 432.246094 78.613281 C 431.269531 76.785156 430.207031 75.011719 429.058594 73.289062 C 427.90625 71.566406 426.671875 69.90625 425.359375 68.304688 C 424.046875 66.703125 422.65625 65.167969 421.191406 63.703125 C 419.726562 62.242188 418.195312 60.851562 416.59375 59.535156 C 414.992188 58.222656 413.328125 56.992188 411.605469 55.839844 C 409.886719 54.6875 408.109375 53.625 406.285156 52.648438 C 404.457031 51.671875 402.585938 50.789062 400.671875 49.996094 C 398.757812 49.203125 396.8125 48.503906 394.828125 47.902344 C 392.847656 47.304688 390.839844 46.800781 388.808594 46.394531 C 386.777344 45.992188 384.730469 45.6875 382.667969 45.484375 C 380.609375 45.28125 378.542969 45.179688 376.46875 45.179688 Z M 376.46875 45.179688 "/>
<path style=" stroke:none;fill-rule:nonzero;fill:rgb(49.409485%,85.099792%,34.118652%);fill-opacity:1;" d="M 298.164062 171.671875 C 296.09375 171.671875 294.027344 171.773438 291.964844 171.976562 C 289.902344 172.179688 287.855469 172.484375 285.824219 172.886719 C 283.792969 173.292969 281.785156 173.792969 279.804688 174.394531 C 277.824219 174.996094 275.875 175.695312 273.960938 176.488281 C 272.046875 177.277344 270.175781 178.164062 268.351562 179.140625 C 266.523438 180.117188 264.75 181.179688 263.027344 182.332031 C 261.304688 183.480469 259.640625 184.714844 258.042969 186.027344 C 256.441406 187.34375 254.90625 188.730469 253.441406 190.195312 C 251.976562 191.660156 250.589844 193.195312 249.273438 194.796875 C 247.960938 196.398438 246.726562 198.058594 245.578125 199.78125 C 244.425781 201.503906 243.363281 203.277344 242.386719 205.105469 C 241.410156 206.929688 240.523438 208.800781 239.730469 210.714844 C 238.941406 212.628906 238.242188 214.578125 237.640625 216.558594 C 237.039062 218.539062 236.539062 220.546875 236.132812 222.578125 C 235.730469 224.609375 235.425781 226.65625 235.222656 228.71875 C 235.019531 230.78125 234.917969 232.847656 234.917969 234.917969 C 234.917969 236.988281 235.019531 239.054688 235.222656 241.117188 C 235.425781 243.179688 235.730469 245.226562 236.132812 247.257812 C 236.539062 249.289062 237.039062 251.296875 237.640625 253.277344 C 238.242188 255.257812 238.941406 257.207031 239.730469 259.121094 C 240.523438 261.035156 241.410156 262.90625 242.386719 264.730469 C 243.363281 266.558594 244.425781 268.332031 245.578125 270.054688 C 246.726562 271.777344 247.960938 273.441406 249.273438 275.039062 C 250.589844 276.640625 251.976562 278.175781 253.441406 279.640625 C 254.90625 281.105469 256.441406 282.492188 258.042969 283.808594 C 259.640625 285.121094 261.304688 286.355469 263.027344 287.503906 C 264.75 288.65625 266.523438 289.71875 268.351562 290.695312 C 270.175781 291.671875 272.046875 292.558594 273.960938 293.347656 C 275.875 294.140625 277.824219 294.839844 279.804688 295.441406 C 281.785156 296.042969 283.792969 296.542969 285.824219 296.949219 C 287.855469 297.351562 289.902344 297.65625 291.964844 297.859375 C 294.027344 298.0625 296.09375 298.164062 298.164062 298.164062 C 300.234375 298.164062 302.300781 298.0625 304.363281 297.859375 C 306.425781 297.65625 308.472656 297.351562 310.503906 296.949219 C 312.535156 296.542969 314.539062 296.042969 316.523438 295.441406 C 318.503906 294.839844 320.453125 294.140625 322.367188 293.347656 C 324.28125 292.558594 326.152344 291.671875 327.976562 290.695312 C 329.804688 289.71875 331.578125 288.65625 333.300781 287.503906 C 335.023438 286.355469 336.683594 285.121094 338.285156 283.808594 C 339.886719 282.492188 341.421875 281.105469 342.886719 279.640625 C 344.351562 278.175781 345.738281 276.640625 347.054688 275.039062 C 348.367188 273.441406 349.601562 271.777344 350.75 270.054688 C 351.902344 268.332031 352.964844 266.558594 353.941406 264.730469 C 354.917969 262.90625 355.800781 261.035156 356.59375 259.121094 C 357.386719 257.207031 358.085938 255.257812 358.6875 253.277344 C 359.289062 251.296875 359.789062 249.289062 360.195312 247.257812 C 360.597656 245.226562 360.902344 243.179688 361.105469 241.117188 C 361.308594 239.054688 361.410156 236.988281 361.410156 234.917969 C 361.410156 232.847656 361.308594 230.78125 361.105469 228.71875 C 360.902344 226.65625 360.597656 224.609375 360.195312 222.578125 C 359.789062 220.546875 359.289062 218.539062 358.6875 216.558594 C 358.085938 214.578125 357.386719 212.628906 356.59375 210.714844 C 355.800781 208.800781 354.917969 206.929688 353.941406 205.105469 C 352.964844 203.277344 351.902344 201.503906 350.75 199.78125 C 349.601562 198.058594 348.367188 196.398438 347.054688 194.796875 C 345.738281 193.195312 344.351562 191.660156 342.886719 190.195312 C 341.421875 188.730469 339.886719 187.34375 338.285156 186.027344 C 336.683594 184.714844 335.023438 183.480469 333.300781 182.332031 C 331.578125 181.179688 329.804688 180.117188 327.976562 179.140625 C 326.152344 178.164062 324.28125 177.277344 322.367188 176.488281 C 320.453125 175.695312 318.503906 174.996094 316.523438 174.394531 C 314.539062 173.792969 312.535156 173.292969 310.503906 172.886719 C 308.472656 172.484375 306.425781 172.179688 304.363281 171.976562 C 302.300781 171.773438 300.234375 171.671875 298.164062 171.671875 Z M 298.164062 171.671875 "/>
<path style=" stroke:none;fill-rule:nonzero;fill:rgb(85.099792%,85.099792%,85.099792%);fill-opacity:1;" d="M 454.777344 171.671875 C 452.703125 171.671875 450.636719 171.773438 448.578125 171.976562 C 446.515625 172.179688 444.46875 172.484375 442.4375 172.886719 C 440.40625 173.292969 438.398438 173.792969 436.417969 174.394531 C 434.433594 174.996094 432.488281 175.695312 430.574219 176.488281 C 428.660156 177.277344 426.789062 178.164062 424.960938 179.140625 C 423.136719 180.117188 421.359375 181.179688 419.636719 182.332031 C 417.917969 183.480469 416.253906 184.714844 414.652344 186.027344 C 413.050781 187.34375 411.519531 188.730469 410.054688 190.195312 C 408.589844 191.660156 407.199219 193.195312 405.886719 194.796875 C 404.570312 196.398438 403.339844 198.058594 402.1875 199.78125 C 401.039062 201.503906 399.972656 203.277344 399 205.105469 C 398.023438 206.929688 397.136719 208.800781 396.34375 210.714844 C 395.550781 212.628906 394.855469 214.578125 394.253906 216.558594 C 393.652344 218.539062 393.148438 220.546875 392.746094 222.578125 C 392.339844 224.609375 392.039062 226.65625 391.835938 228.71875 C 391.632812 230.78125 391.53125 232.847656 391.53125 234.917969 C 391.53125 236.988281 391.632812 239.054688 391.835938 241.117188 C 392.039062 243.179688 392.339844 245.226562 392.746094 247.257812 C 393.148438 249.289062 393.652344 251.296875 394.253906 253.277344 C 394.855469 255.257812 395.550781 257.207031 396.34375 259.121094 C 397.136719 261.035156 398.023438 262.90625 399 264.730469 C 399.972656 266.558594 401.039062 268.332031 402.1875 270.054688 C 403.339844 271.777344 404.570312 273.441406 405.886719 275.039062 C 407.199219 276.640625 408.589844 278.175781 410.054688 279.640625 C 411.519531 281.105469 413.050781 282.492188 414.652344 283.808594 C 416.253906 285.121094 417.917969 286.355469 419.636719 287.503906 C 421.359375 288.65625 423.136719 289.71875 424.960938 290.695312 C 426.789062 291.671875 428.660156 292.558594 430.574219 293.347656 C 432.488281 294.140625 434.433594 294.839844 436.417969 295.441406 C 438.398438 296.042969 440.40625 296.542969 442.4375 296.949219 C 444.46875 297.351562 446.515625 297.65625 448.578125 297.859375 C 450.636719 298.0625 452.703125 298.164062 454.777344 298.164062 C 456.847656 298.164062 458.914062 298.0625 460.976562 297.859375 C 463.035156 297.65625 465.082031 297.351562 467.113281 296.949219 C 469.144531 296.542969 471.152344 296.042969 473.136719 295.441406 C 475.117188 294.839844 477.066406 294.140625 478.980469 293.347656 C 480.894531 292.558594 482.761719 291.671875 484.589844 290.695312 C 486.417969 289.71875 488.191406 288.65625 489.914062 287.503906 C 491.636719 286.355469 493.296875 285.121094 494.898438 283.808594 C 496.5 282.492188 498.03125 281.105469 499.496094 279.640625 C 500.960938 278.175781 502.351562 276.640625 503.664062 275.039062 C 504.980469 273.441406 506.210938 271.777344 507.363281 270.054688 C 508.511719 268.332031 509.578125 266.558594 510.554688 264.730469 C 511.53125 262.90625 512.414062 261.035156 513.207031 259.121094 C 514 257.207031 514.695312 255.257812 515.296875 253.277344 C 515.898438 251.296875 516.402344 249.289062 516.804688 247.257812 C 517.210938 245.226562 517.515625 243.179688 517.71875 241.117188 C 517.921875 239.054688 518.023438 236.988281 518.023438 234.917969 C 518.023438 232.847656 517.921875 230.78125 517.71875 228.71875 C 517.515625 226.65625 517.210938 224.609375 516.804688 222.578125 C 516.402344 220.546875 515.898438 218.539062 515.296875 216.558594 C 514.695312 214.578125 514 212.628906 513.207031 210.714844 C 512.414062 208.800781 511.53125 206.929688 510.554688 205.105469 C 509.578125 203.277344 508.511719 201.503906 507.363281 199.78125 C 506.210938 198.058594 504.980469 196.398438 503.664062 194.796875 C 502.351562 193.195312 500.960938 191.660156 499.496094 190.195312 C 498.03125 188.730469 496.5 187.34375 494.898438 186.027344 C 493.296875 184.714844 491.636719 183.480469 489.914062 182.332031 C 488.191406 181.179688 486.417969 180.117188 484.589844 179.140625 C 482.761719 178.164062 480.894531 177.277344 478.980469 176.488281 C 477.066406 175.695312 475.117188 174.996094 473.136719 174.394531 C 471.152344 173.792969 469.144531 173.292969 467.113281 172.886719 C 465.082031 172.484375 463.035156 172.179688 460.976562 171.976562 C 458.914062 171.773438 456.847656 171.671875 454.777344 171.671875 Z M 454.777344 171.671875 "/>
<path style=" stroke:none;fill-rule:nonzero;fill:rgb(49.409485%,85.099792%,34.118652%);fill-opacity:1;" d="M 376.46875 313.222656 C 374.398438 313.222656 372.332031 313.324219 370.269531 313.527344 C 368.210938 313.730469 366.164062 314.035156 364.132812 314.4375 C 362.101562 314.84375 360.09375 315.347656 358.109375 315.949219 C 356.128906 316.546875 354.179688 317.246094 352.265625 318.039062 C 350.351562 318.832031 348.484375 319.714844 346.65625 320.691406 C 344.828125 321.667969 343.054688 322.730469 341.332031 323.882812 C 339.609375 325.035156 337.949219 326.265625 336.347656 327.582031 C 334.746094 328.894531 333.214844 330.285156 331.75 331.75 C 330.285156 333.214844 328.894531 334.746094 327.582031 336.347656 C 326.265625 337.949219 325.035156 339.609375 323.882812 341.332031 C 322.730469 343.054688 321.667969 344.828125 320.691406 346.65625 C 319.714844 348.484375 318.832031 350.351562 318.039062 352.265625 C 317.246094 354.179688 316.546875 356.128906 315.949219 358.109375 C 315.347656 360.09375 314.84375 362.101562 314.4375 364.132812 C 314.035156 366.164062 313.730469 368.210938 313.527344 370.269531 C 313.324219 372.332031 313.222656 374.398438 313.222656 376.46875 C 313.222656 378.542969 313.324219 380.609375 313.527344 382.667969 C 313.730469 384.730469 314.035156 386.777344 314.4375 388.808594 C 314.84375 390.839844 315.347656 392.847656 315.949219 394.828125 C 316.546875 396.8125 317.246094 398.757812 318.039062 400.671875 C 318.832031 402.585938 319.714844 404.457031 320.691406 406.285156 C 321.667969 408.109375 322.730469 409.886719 323.882812 411.605469 C 325.035156 413.328125 326.265625 414.992188 327.582031 416.59375 C 328.894531 418.195312 330.285156 419.726562 331.75 421.191406 C 333.214844 422.65625 334.746094 424.046875 336.347656 425.359375 C 337.949219 426.671875 339.609375 427.90625 341.332031 429.058594 C 343.054688 430.207031 344.828125 431.269531 346.65625 432.246094 C 348.484375 433.222656 350.351562 434.109375 352.265625 434.902344 C 354.179688 435.695312 356.128906 436.390625 358.109375 436.992188 C 360.09375 437.59375 362.101562 438.097656 364.132812 438.5 C 366.164062 438.90625 368.210938 439.207031 370.269531 439.410156 C 372.332031 439.613281 374.398438 439.714844 376.46875 439.714844 C 378.542969 439.714844 380.609375 439.613281 382.667969 439.410156 C 384.730469 439.207031 386.777344 438.90625 388.808594 438.5 C 390.839844 438.097656 392.847656 437.59375 394.828125 436.992188 C 396.8125 436.390625 398.757812 435.695312 400.671875 434.902344 C 402.585938 434.109375 404.457031 433.222656 406.285156 432.246094 C 408.109375 431.269531 409.886719 430.207031 411.605469 429.058594 C 413.328125 427.90625 414.992188 426.671875 416.59375 425.359375 C 418.195312 424.046875 419.726562 422.65625 421.191406 421.191406 C 422.65625 419.726562 424.046875 418.195312 425.359375 416.59375 C 426.671875 414.992188 427.90625 413.328125 429.058594 411.605469 C 430.207031 409.886719 431.269531 408.109375 432.246094 406.285156 C 433.222656 404.457031 434.109375 402.585938 434.902344 400.671875 C 435.695312 398.757812 436.390625 396.8125 436.992188 394.828125 C 437.59375 392.847656 438.097656 390.839844 438.5 388.808594 C 438.90625 386.777344 439.207031 384.730469 439.410156 382.667969 C 439.613281 380.609375 439.714844 378.542969 439.714844 376.46875 C 439.714844 374.398438 439.613281 372.332031 439.410156 370.269531 C 439.207031 368.210938 438.90625 366.164062 438.5 364.132812 C 438.097656 362.101562 437.59375 360.09375 436.992188 358.109375 C 436.390625 356.128906 435.695312 354.179688 434.902344 352.265625 C 434.109375 350.351562 433.222656 348.484375 432.246094 346.65625 C 431.269531 344.828125 430.207031 343.054688 429.058594 341.332031 C 427.90625 339.609375 426.671875 337.949219 425.359375 336.347656 C 424.046875 334.746094 422.65625 333.214844 421.191406 331.75 C 419.726562 330.285156 418.195312 328.894531 416.59375 327.582031 C 414.992188 326.265625 413.328125 325.035156 411.605469 323.882812 C 409.886719 322.730469 408.109375 321.667969 406.285156 320.691406 C 404.457031 319.714844 402.585938 318.832031 400.671875 318.039062 C 398.757812 317.246094 396.8125 316.546875 394.828125 315.949219 C 392.847656 315.347656 390.839844 314.84375 388.808594 314.4375 C 386.777344 314.035156 384.730469 313.730469 382.667969 313.527344 C 380.609375 313.324219 378.542969 313.222656 376.46875 313.222656 Z M 376.46875 313.222656 "/>
<path style=" stroke:none;fill-rule:nonzero;fill:rgb(100%,56.858826%,30.198669%);fill-opacity:1;" d="M 533.082031 313.222656 C 531.011719 313.222656 528.945312 313.324219 526.882812 313.527344 C 524.820312 313.730469 522.773438 314.035156 520.742188 314.4375 C 518.710938 314.84375 516.703125 315.347656 514.722656 315.949219 C 512.742188 316.546875 510.792969 317.246094 508.878906 318.039062 C 506.964844 318.832031 505.09375 319.714844 503.269531 320.691406 C 501.441406 321.667969 499.667969 322.730469 497.945312 323.882812 C 496.222656 325.035156 494.558594 326.265625 492.960938 327.582031 C 491.359375 328.894531 489.824219 330.285156 488.359375 331.75 C 486.894531 333.214844 485.507812 334.746094 484.191406 336.347656 C 482.878906 337.949219 481.644531 339.609375 480.496094 341.332031 C 479.34375 343.054688 478.28125 344.828125 477.304688 346.65625 C 476.328125 348.484375 475.441406 350.351562 474.652344 352.265625 C 473.859375 354.179688 473.160156 356.128906 472.558594 358.109375 C 471.957031 360.09375 471.457031 362.101562 471.050781 364.132812 C 470.648438 366.164062 470.34375 368.210938 470.140625 370.269531 C 469.9375 372.332031 469.835938 374.398438 469.835938 376.46875 C 469.835938 378.542969 469.9375 380.609375 470.140625 382.667969 C 470.34375 384.730469 470.648438 386.777344 471.050781 388.808594 C 471.457031 390.839844 471.957031 392.847656 472.558594 394.828125 C 473.160156 396.8125 473.859375 398.757812 474.652344 400.671875 C 475.441406 402.585938 476.328125 404.457031 477.304688 406.285156 C 478.28125 408.109375 479.34375 409.886719 480.496094 411.605469 C 481.644531 413.328125 482.878906 414.992188 484.191406 416.59375 C 485.507812 418.195312 486.894531 419.726562 488.359375 421.191406 C 489.824219 422.65625 491.359375 424.046875 492.960938 425.359375 C 494.558594 426.671875 496.222656 427.90625 497.945312 429.058594 C 499.667969 430.207031 501.441406 431.269531 503.269531 432.246094 C 505.09375 433.222656 506.964844 434.109375 508.878906 434.902344 C 510.792969 435.695312 512.742188 436.390625 514.722656 436.992188 C 516.703125 437.59375 518.710938 438.097656 520.742188 438.5 C 522.773438 438.90625 524.820312 439.207031 526.882812 439.410156 C 528.945312 439.613281 531.011719 439.714844 533.082031 439.714844 C 535.152344 439.714844 537.21875 439.613281 539.28125 439.410156 C 541.34375 439.207031 543.390625 438.90625 545.421875 438.5 C 547.453125 438.097656 549.457031 437.59375 551.441406 436.992188 C 553.421875 436.390625 555.371094 435.695312 557.285156 434.902344 C 559.199219 434.109375 561.070312 433.222656 562.894531 432.246094 C 564.722656 431.269531 566.496094 430.207031 568.21875 429.058594 C 569.941406 427.90625 571.601562 426.671875 573.203125 425.359375 C 574.804688 424.046875 576.339844 422.65625 577.804688 421.191406 C 579.269531 419.726562 580.65625 418.195312 581.972656 416.59375 C 583.285156 414.992188 584.519531 413.328125 585.667969 411.605469 C 586.820312 409.886719 587.882812 408.109375 588.859375 406.285156 C 589.835938 404.457031 590.71875 402.585938 591.511719 400.671875 C 592.304688 398.757812 593.003906 396.8125 593.605469 394.828125 C 594.207031 392.847656 594.707031 390.839844 595.113281 388.808594 C 595.515625 386.777344 595.820312 384.730469 596.023438 382.667969 C 596.226562 380.609375 596.328125 378.542969 596.328125 376.46875 C 596.328125 374.398438 596.226562 372.332031 596.023438 370.269531 C 595.820312 368.210938 595.515625 366.164062 595.113281 364.132812 C 594.707031 362.101562 594.207031 360.09375 593.605469 358.109375 C 593.003906 356.128906 592.304688 354.179688 591.511719 352.265625 C 590.71875 350.351562 589.835938 348.484375 588.859375 346.65625 C 587.882812 344.828125 586.820312 343.054688 585.667969 341.332031 C 584.519531 339.609375 583.285156 337.949219 581.972656 336.347656 C 580.65625 334.746094 579.269531 333.214844 577.804688 331.75 C 576.339844 330.285156 574.804688 328.894531 573.203125 327.582031 C 571.601562 326.265625 569.941406 325.035156 568.21875 323.882812 C 566.496094 322.730469 564.722656 321.667969 562.894531 320.691406 C 561.070312 319.714844 559.199219 318.832031 557.285156 318.039062 C 555.371094 317.246094 553.421875 316.546875 551.441406 315.949219 C 549.460938 315.347656 547.453125 314.84375 545.421875 314.4375 C 543.390625 314.035156 541.34375 313.730469 539.28125 313.527344 C 537.21875 313.324219 535.152344 313.222656 533.082031 313.222656 Z M 533.082031 313.222656 "/>
<path style=" stroke:none;fill-rule:nonzero;fill:rgb(85.099792%,85.099792%,85.099792%);fill-opacity:1;" d="M 219.859375 313.222656 C 217.785156 313.222656 215.71875 313.324219 213.660156 313.527344 C 211.597656 313.730469 209.550781 314.035156 207.519531 314.4375 C 205.488281 314.84375 203.480469 315.347656 201.5 315.949219 C 199.515625 316.546875 197.570312 317.246094 195.65625 318.039062 C 193.742188 318.832031 191.871094 319.714844 190.042969 320.691406 C 188.21875 321.667969 186.441406 322.730469 184.71875 323.882812 C 183 325.035156 181.335938 326.265625 179.734375 327.582031 C 178.132812 328.894531 176.601562 330.285156 175.136719 331.75 C 173.671875 333.214844 172.28125 334.746094 170.96875 336.347656 C 169.652344 337.949219 168.421875 339.609375 167.269531 341.332031 C 166.121094 343.054688 165.054688 344.828125 164.078125 346.65625 C 163.105469 348.484375 162.21875 350.351562 161.425781 352.265625 C 160.632812 354.179688 159.9375 356.128906 159.335938 358.109375 C 158.734375 360.09375 158.230469 362.101562 157.828125 364.132812 C 157.421875 366.164062 157.121094 368.210938 156.917969 370.269531 C 156.714844 372.332031 156.613281 374.398438 156.613281 376.46875 C 156.613281 378.542969 156.714844 380.609375 156.917969 382.667969 C 157.121094 384.730469 157.421875 386.777344 157.828125 388.808594 C 158.230469 390.839844 158.734375 392.847656 159.335938 394.828125 C 159.9375 396.8125 160.632812 398.757812 161.425781 400.671875 C 162.21875 402.585938 163.105469 404.457031 164.078125 406.285156 C 165.054688 408.109375 166.121094 409.886719 167.269531 411.605469 C 168.421875 413.328125 169.652344 414.992188 170.96875 416.59375 C 172.28125 418.195312 173.671875 419.726562 175.136719 421.191406 C 176.601562 422.65625 178.132812 424.046875 179.734375 425.359375 C 181.335938 426.671875 183 427.90625 184.71875 429.058594 C 186.441406 430.207031 188.21875 431.269531 190.042969 432.246094 C 191.871094 433.222656 193.742188 434.109375 195.65625 434.902344 C 197.570312 435.695312 199.515625 436.390625 201.5 436.992188 C 203.480469 437.59375 205.488281 438.097656 207.519531 438.5 C 209.550781 438.90625 211.597656 439.207031 213.660156 439.410156 C 215.71875 439.613281 217.785156 439.714844 219.859375 439.714844 C 221.929688 439.714844 223.996094 439.613281 226.058594 439.410156 C 228.117188 439.207031 230.164062 438.90625 232.195312 438.5 C 234.226562 438.097656 236.234375 437.59375 238.21875 436.992188 C 240.199219 436.390625 242.148438 435.695312 244.0625 434.902344 C 245.976562 434.109375 247.84375 433.222656 249.671875 432.246094 C 251.5 431.269531 253.273438 430.207031 254.996094 429.058594 C 256.71875 427.90625 258.378906 426.671875 259.980469 425.359375 C 261.582031 424.046875 263.113281 422.65625 264.578125 421.191406 C 266.042969 419.726562 267.433594 418.195312 268.746094 416.59375 C 270.0625 414.992188 271.292969 413.328125 272.445312 411.605469 C 273.59375 409.886719 274.660156 408.109375 275.636719 406.285156 C 276.613281 404.457031 277.496094 402.585938 278.289062 400.671875 C 279.082031 398.757812 279.777344 396.8125 280.378906 394.828125 C 280.980469 392.847656 281.484375 390.839844 281.886719 388.808594 C 282.292969 386.777344 282.597656 384.730469 282.800781 382.667969 C 283.003906 380.609375 283.105469 378.542969 283.105469 376.46875 C 283.105469 374.398438 283.003906 372.332031 282.800781 370.269531 C 282.597656 368.210938 282.292969 366.164062 281.886719 364.132812 C 281.484375 362.101562 280.980469 360.09375 280.378906 358.109375 C 279.777344 356.128906 279.082031 354.179688 278.289062 352.265625 C 277.496094 350.351562 276.613281 348.484375 275.636719 346.65625 C 274.660156 344.828125 273.59375 343.054688 272.445312 341.332031 C 271.292969 339.609375 270.0625 337.949219 268.746094 336.347656 C 267.433594 334.746094 266.042969 333.214844 264.578125 331.75 C 263.113281 330.285156 261.582031 328.894531 259.980469 327.582031 C 258.378906 326.265625 256.71875 325.035156 254.996094 323.882812 C 253.273438 322.730469 251.5 321.667969 249.671875 320.691406 C 247.84375 319.714844 245.976562 318.832031 244.0625 318.039062 C 242.148438 317.246094 240.199219 316.546875 238.21875 315.949219 C 236.234375 315.347656 234.226562 314.84375 232.195312 314.4375 C 230.164062 314.035156 228.117188 313.730469 226.058594 313.527344 C 223.996094 313.324219 221.929688 313.222656 219.859375 313.222656 Z M 219.859375 313.222656 "/>
<path style=" stroke:none;fill-rule:nonzero;fill:rgb(100%,56.858826%,30.198669%);fill-opacity:1;" d="M 298.164062 454.777344 C 296.09375 454.777344 294.027344 454.878906 291.964844 455.082031 C 289.902344 455.285156 287.855469 455.585938 285.824219 455.992188 C 283.792969 456.394531 281.785156 456.898438 279.804688 457.5 C 277.824219 458.101562 275.875 458.796875 273.960938 459.589844 C 272.046875 460.382812 270.175781 461.265625 268.351562 462.242188 C 266.523438 463.21875 264.75 464.285156 263.027344 465.433594 C 261.304688 466.585938 259.640625 467.816406 258.042969 469.132812 C 256.441406 470.445312 254.90625 471.835938 253.441406 473.300781 C 251.976562 474.765625 250.589844 476.296875 249.273438 477.898438 C 247.960938 479.5 246.726562 481.160156 245.578125 482.882812 C 244.425781 484.605469 243.363281 486.382812 242.386719 488.207031 C 241.410156 490.035156 240.523438 491.90625 239.730469 493.820312 C 238.941406 495.730469 238.242188 497.679688 237.640625 499.664062 C 237.039062 501.644531 236.539062 503.652344 236.132812 505.683594 C 235.730469 507.714844 235.425781 509.761719 235.222656 511.824219 C 235.019531 513.882812 234.917969 515.949219 234.917969 518.023438 C 234.917969 520.09375 235.019531 522.160156 235.222656 524.222656 C 235.425781 526.28125 235.730469 528.328125 236.132812 530.359375 C 236.539062 532.390625 237.039062 534.398438 237.640625 536.382812 C 238.242188 538.363281 238.941406 540.3125 239.730469 542.226562 C 240.523438 544.136719 241.410156 546.007812 242.386719 547.835938 C 243.363281 549.664062 244.425781 551.4375 245.578125 553.160156 C 246.726562 554.882812 247.960938 556.542969 249.273438 558.144531 C 250.589844 559.746094 251.976562 561.277344 253.441406 562.742188 C 254.90625 564.207031 256.441406 565.597656 258.042969 566.910156 C 259.640625 568.226562 261.304688 569.457031 263.027344 570.609375 C 264.75 571.757812 266.523438 572.824219 268.351562 573.800781 C 270.175781 574.777344 272.046875 575.660156 273.960938 576.453125 C 275.875 577.246094 277.824219 577.941406 279.804688 578.542969 C 281.785156 579.144531 283.792969 579.648438 285.824219 580.050781 C 287.855469 580.457031 289.902344 580.761719 291.964844 580.964844 C 294.027344 581.164062 296.09375 581.265625 298.164062 581.265625 C 300.234375 581.265625 302.300781 581.164062 304.363281 580.964844 C 306.425781 580.761719 308.472656 580.457031 310.503906 580.050781 C 312.535156 579.648438 314.539062 579.144531 316.523438 578.542969 C 318.503906 577.941406 320.453125 577.246094 322.367188 576.453125 C 324.28125 575.660156 326.152344 574.777344 327.976562 573.800781 C 329.804688 572.824219 331.578125 571.757812 333.300781 570.609375 C 335.023438 569.457031 336.683594 568.226562 338.285156 566.910156 C 339.886719 565.597656 341.421875 564.207031 342.886719 562.742188 C 344.351562 561.277344 345.738281 559.746094 347.054688 558.144531 C 348.367188 556.542969 349.601562 554.882812 350.75 553.160156 C 351.902344 551.4375 352.964844 549.664062 353.941406 547.835938 C 354.917969 546.007812 355.800781 544.136719 356.59375 542.226562 C 357.386719 540.3125 358.085938 538.363281 358.6875 536.382812 C 359.289062 534.398438 359.789062 532.390625 360.195312 530.359375 C 360.597656 528.328125 360.902344 526.28125 361.105469 524.222656 C 361.308594 522.160156 361.410156 520.09375 361.410156 518.023438 C 361.410156 515.949219 361.308594 513.882812 361.105469 511.824219 C 360.902344 509.761719 360.597656 507.714844 360.195312 505.683594 C 359.789062 503.652344 359.289062 501.644531 358.6875 499.664062 C 358.085938 497.679688 357.386719 495.730469 356.59375 493.820312 C 355.800781 491.90625 354.917969 490.035156 353.941406 488.207031 C 352.964844 486.382812 351.902344 484.605469 350.75 482.882812 C 349.601562 481.160156 348.367188 479.5 347.054688 477.898438 C 345.738281 476.296875 344.351562 474.765625 342.886719 473.300781 C 341.421875 471.835938 339.886719 470.445312 338.285156 469.132812 C 336.683594 467.816406 335.023438 466.585938 333.300781 465.433594 C 331.578125 464.285156 329.804688 463.21875 327.976562 462.242188 C 326.152344 461.265625 324.28125 460.382812 322.367188 459.589844 C 320.453125 458.796875 318.503906 458.101562 316.523438 457.5 C 314.539062 456.898438 312.535156 456.394531 310.503906 455.992188 C 308.472656 455.585938 306.425781 455.285156 304.363281 455.082031 C 302.300781 454.878906 300.234375 454.777344 298.164062 454.777344 Z M 298.164062 454.777344 "/>
<path style=" stroke:none;fill-rule:nonzero;fill:rgb(100%,56.858826%,30.198669%);fill-opacity:1;" d="M 454.777344 454.777344 C 452.703125 454.777344 450.636719 454.878906 448.578125 455.082031 C 446.515625 455.285156 444.46875 455.585938 442.4375 455.992188 C 440.40625 456.394531 438.398438 456.898438 436.417969 457.5 C 434.433594 458.101562 432.488281 458.796875 430.574219 459.589844 C 428.660156 460.382812 426.789062 461.265625 424.960938 462.242188 C 423.136719 463.21875 421.359375 464.285156 419.636719 465.433594 C 417.917969 466.585938 416.253906 467.816406 414.652344 469.132812 C 413.050781 470.445312 411.519531 471.835938 410.054688 473.300781 C 408.589844 474.765625 407.199219 476.296875 405.886719 477.898438 C 404.570312 479.5 403.339844 481.160156 402.1875 482.882812 C 401.039062 484.605469 399.972656 486.382812 399 488.207031 C 398.023438 490.035156 397.136719 491.90625 396.34375 493.820312 C 395.550781 495.730469 394.855469 497.679688 394.253906 499.664062 C 393.652344 501.644531 393.148438 503.652344 392.746094 505.683594 C 392.339844 507.714844 392.039062 509.761719 391.835938 511.824219 C 391.632812 513.882812 391.53125 515.949219 391.53125 518.023438 C 391.53125 520.09375 391.632812 522.160156 391.835938 524.222656 C 392.039062 526.28125 392.339844 528.328125 392.746094 530.359375 C 393.148438 532.390625 393.652344 534.398438 394.253906 536.382812 C 394.855469 538.363281 395.550781 540.3125 396.34375 542.226562 C 397.136719 544.136719 398.023438 546.007812 399 547.835938 C 399.972656 549.664062 401.039062 551.4375 402.1875 553.160156 C 403.339844 554.882812 404.570312 556.542969 405.886719 558.144531 C 407.199219 559.746094 408.589844 561.277344 410.054688 562.742188 C 411.519531 564.207031 413.050781 565.597656 414.652344 566.910156 C 416.253906 568.226562 417.917969 569.457031 419.636719 570.609375 C 421.359375 571.757812 423.136719 572.824219 424.960938 573.800781 C 426.789062 574.777344 428.660156 575.660156 430.574219 576.453125 C 432.488281 577.246094 434.433594 577.941406 436.417969 578.542969 C 438.398438 579.144531 440.40625 579.648438 442.4375 580.050781 C 444.46875 580.457031 446.515625 580.761719 448.578125 580.964844 C 450.636719 581.164062 452.703125 581.265625 454.777344 581.265625 C 456.847656 581.265625 458.914062 581.164062 460.976562 580.964844 C 463.035156 580.761719 465.082031 580.457031 467.113281 580.050781 C 469.144531 579.648438 471.152344 579.144531 473.136719 578.542969 C 475.117188 577.941406 477.066406 577.246094 478.980469 576.453125 C 480.894531 575.660156 482.761719 574.777344 484.589844 573.800781 C 486.417969 572.824219 488.191406 571.757812 489.914062 570.609375 C 491.636719 569.457031 493.296875 568.226562 494.898438 566.910156 C 496.5 565.597656 498.03125 564.207031 499.496094 562.742188 C 500.960938 561.277344 502.351562 559.746094 503.664062 558.144531 C 504.980469 556.542969 506.210938 554.882812 507.363281 553.160156 C 508.511719 551.4375 509.578125 549.664062 510.554688 547.835938 C 511.53125 546.007812 512.414062 544.136719 513.207031 542.226562 C 514 540.3125 514.695312 538.363281 515.296875 536.382812 C 515.898438 534.398438 516.402344 532.390625 516.804688 530.359375 C 517.210938 528.328125 517.515625 526.28125 517.71875 524.222656 C 517.921875 522.160156 518.023438 520.09375 518.023438 518.023438 C 518.023438 515.949219 517.921875 513.882812 517.71875 511.824219 C 517.515625 509.761719 517.210938 507.714844 516.804688 505.683594 C 516.402344 503.652344 515.898438 501.644531 515.296875 499.664062 C 514.695312 497.679688 514 495.730469 513.207031 493.820312 C 512.414062 491.90625 511.53125 490.035156 510.554688 488.207031 C 509.578125 486.382812 508.511719 484.605469 507.363281 482.882812 C 506.210938 481.160156 504.980469 479.5 503.664062 477.898438 C 502.351562 476.296875 500.960938 474.765625 499.496094 473.300781 C 498.03125 471.835938 496.5 470.445312 494.898438 469.132812 C 493.296875 467.816406 491.636719 466.585938 489.914062 465.433594 C 488.191406 464.285156 486.417969 463.21875 484.589844 462.242188 C 482.761719 461.265625 480.894531 460.382812 478.980469 459.589844 C 477.066406 458.796875 475.117188 458.101562 473.136719 457.5 C 471.152344 456.898438 469.144531 456.394531 467.113281 455.992188 C 465.082031 455.585938 463.035156 455.285156 460.976562 455.082031 C 458.914062 454.878906 456.847656 454.777344 454.777344 454.777344 Z M 454.777344 454.777344 "/>
<path style=" stroke:none;fill-rule:nonzero;fill:rgb(100%,56.858826%,30.198669%);fill-opacity:1;" d="M 141.550781 454.777344 C 139.480469 454.777344 137.414062 454.878906 135.351562 455.082031 C 133.292969 455.285156 131.246094 455.585938 129.214844 455.992188 C 127.179688 456.394531 125.175781 456.898438 123.191406 457.5 C 121.210938 458.101562 119.261719 458.796875 117.347656 459.589844 C 115.433594 460.382812 113.566406 461.265625 111.738281 462.242188 C 109.910156 463.21875 108.136719 464.285156 106.414062 465.433594 C 104.691406 466.585938 103.03125 467.816406 101.429688 469.132812 C 99.828125 470.445312 98.296875 471.835938 96.832031 473.300781 C 95.367188 474.765625 93.976562 476.296875 92.664062 477.898438 C 91.347656 479.5 90.117188 481.160156 88.964844 482.882812 C 87.8125 484.605469 86.75 486.382812 85.773438 488.207031 C 84.796875 490.035156 83.914062 491.90625 83.121094 493.820312 C 82.328125 495.730469 81.628906 497.679688 81.03125 499.664062 C 80.429688 501.644531 79.925781 503.652344 79.519531 505.683594 C 79.117188 507.714844 78.8125 509.761719 78.609375 511.824219 C 78.40625 513.882812 78.304688 515.949219 78.304688 518.023438 C 78.304688 520.09375 78.40625 522.160156 78.609375 524.222656 C 78.8125 526.28125 79.117188 528.328125 79.519531 530.359375 C 79.925781 532.390625 80.429688 534.398438 81.03125 536.382812 C 81.628906 538.363281 82.328125 540.3125 83.121094 542.226562 C 83.914062 544.136719 84.796875 546.007812 85.773438 547.835938 C 86.75 549.664062 87.8125 551.4375 88.964844 553.160156 C 90.117188 554.882812 91.347656 556.542969 92.664062 558.144531 C 93.976562 559.746094 95.367188 561.277344 96.832031 562.742188 C 98.296875 564.207031 99.828125 565.597656 101.429688 566.910156 C 103.03125 568.226562 104.691406 569.457031 106.414062 570.609375 C 108.136719 571.757812 109.910156 572.824219 111.738281 573.800781 C 113.566406 574.777344 115.433594 575.660156 117.347656 576.453125 C 119.261719 577.246094 121.210938 577.941406 123.191406 578.542969 C 125.175781 579.144531 127.179688 579.648438 129.214844 580.050781 C 131.246094 580.457031 133.292969 580.761719 135.351562 580.964844 C 137.414062 581.164062 139.480469 581.265625 141.550781 581.265625 C 143.625 581.265625 145.691406 581.164062 147.75 580.964844 C 149.8125 580.761719 151.859375 580.457031 153.890625 580.050781 C 155.921875 579.648438 157.929688 579.144531 159.910156 578.542969 C 161.894531 577.941406 163.839844 577.246094 165.753906 576.453125 C 167.667969 575.660156 169.539062 574.777344 171.367188 573.800781 C 173.191406 572.824219 174.96875 571.757812 176.6875 570.609375 C 178.410156 569.457031 180.074219 568.226562 181.675781 566.910156 C 183.277344 565.597656 184.808594 564.207031 186.273438 562.742188 C 187.738281 561.277344 189.128906 559.746094 190.441406 558.144531 C 191.753906 556.542969 192.988281 554.882812 194.140625 553.160156 C 195.289062 551.4375 196.351562 549.664062 197.328125 547.835938 C 198.304688 546.007812 199.191406 544.136719 199.984375 542.226562 C 200.777344 540.3125 201.472656 538.363281 202.074219 536.382812 C 202.675781 534.398438 203.179688 532.390625 203.582031 530.359375 C 203.988281 528.328125 204.289062 526.28125 204.492188 524.222656 C 204.695312 522.160156 204.796875 520.09375 204.796875 518.023438 C 204.796875 515.949219 204.695312 513.882812 204.492188 511.824219 C 204.289062 509.761719 203.988281 507.714844 203.582031 505.683594 C 203.179688 503.652344 202.675781 501.644531 202.074219 499.664062 C 201.472656 497.679688 200.777344 495.730469 199.984375 493.820312 C 199.191406 491.90625 198.304688 490.035156 197.328125 488.207031 C 196.351562 486.382812 195.289062 484.605469 194.140625 482.882812 C 192.988281 481.160156 191.753906 479.5 190.441406 477.898438 C 189.128906 476.296875 187.738281 474.765625 186.273438 473.300781 C 184.808594 471.835938 183.277344 470.445312 181.675781 469.132812 C 180.074219 467.816406 178.410156 466.585938 176.6875 465.433594 C 174.96875 464.285156 173.191406 463.21875 171.367188 462.242188 C 169.539062 461.265625 167.667969 460.382812 165.753906 459.589844 C 163.839844 458.796875 161.894531 458.101562 159.910156 457.5 C 157.929688 456.898438 155.921875 456.394531 153.890625 455.992188 C 151.859375 455.585938 149.8125 455.285156 147.75 455.082031 C 145.691406 454.878906 143.625 454.777344 141.550781 454.777344 Z M 141.550781 454.777344 "/>
<path style=" stroke:none;fill-rule:nonzero;fill:rgb(85.099792%,85.099792%,85.099792%);fill-opacity:1;" d="M 611.386719 454.777344 C 609.316406 454.777344 607.25 454.878906 605.1875 455.082031 C 603.128906 455.285156 601.082031 455.585938 599.050781 455.992188 C 597.019531 456.394531 595.011719 456.898438 593.027344 457.5 C 591.046875 458.101562 589.097656 458.796875 587.183594 459.589844 C 585.269531 460.382812 583.402344 461.265625 581.574219 462.242188 C 579.746094 463.21875 577.972656 464.285156 576.25 465.433594 C 574.527344 466.585938 572.867188 467.816406 571.265625 469.132812 C 569.664062 470.445312 568.132812 471.835938 566.667969 473.300781 C 565.203125 474.765625 563.8125 476.296875 562.5 477.898438 C 561.183594 479.5 559.953125 481.160156 558.800781 482.882812 C 557.648438 484.605469 556.585938 486.382812 555.609375 488.207031 C 554.632812 490.035156 553.75 491.90625 552.957031 493.820312 C 552.164062 495.730469 551.464844 497.679688 550.867188 499.664062 C 550.265625 501.644531 549.761719 503.652344 549.355469 505.683594 C 548.953125 507.714844 548.648438 509.761719 548.445312 511.824219 C 548.242188 513.882812 548.140625 515.949219 548.140625 518.023438 C 548.140625 520.09375 548.242188 522.160156 548.445312 524.222656 C 548.648438 526.28125 548.953125 528.328125 549.355469 530.359375 C 549.761719 532.390625 550.265625 534.398438 550.867188 536.382812 C 551.464844 538.363281 552.164062 540.3125 552.957031 542.226562 C 553.75 544.136719 554.632812 546.007812 555.609375 547.835938 C 556.585938 549.664062 557.648438 551.4375 558.800781 553.160156 C 559.953125 554.882812 561.183594 556.542969 562.5 558.144531 C 563.8125 559.746094 565.203125 561.277344 566.667969 562.742188 C 568.132812 564.207031 569.664062 565.597656 571.265625 566.910156 C 572.867188 568.226562 574.527344 569.457031 576.25 570.609375 C 577.972656 571.757812 579.746094 572.824219 581.574219 573.800781 C 583.402344 574.777344 585.269531 575.660156 587.183594 576.453125 C 589.097656 577.246094 591.046875 577.941406 593.027344 578.542969 C 595.011719 579.144531 597.019531 579.648438 599.050781 580.050781 C 601.082031 580.457031 603.128906 580.761719 605.1875 580.964844 C 607.25 581.164062 609.316406 581.265625 611.386719 581.265625 C 613.460938 581.265625 615.527344 581.164062 617.585938 580.964844 C 619.648438 580.761719 621.695312 580.457031 623.726562 580.050781 C 625.757812 579.648438 627.765625 579.144531 629.746094 578.542969 C 631.730469 577.941406 633.675781 577.246094 635.589844 576.453125 C 637.503906 575.660156 639.375 574.777344 641.203125 573.800781 C 643.027344 572.824219 644.804688 571.757812 646.523438 570.609375 C 648.246094 569.457031 649.910156 568.226562 651.511719 566.910156 C 653.113281 565.597656 654.644531 564.207031 656.109375 562.742188 C 657.574219 561.277344 658.964844 559.746094 660.277344 558.144531 C 661.589844 556.542969 662.824219 554.882812 663.976562 553.160156 C 665.125 551.4375 666.1875 549.664062 667.164062 547.835938 C 668.140625 546.007812 669.027344 544.136719 669.820312 542.226562 C 670.613281 540.3125 671.308594 538.363281 671.910156 536.382812 C 672.511719 534.398438 673.015625 532.390625 673.417969 530.359375 C 673.824219 528.328125 674.125 526.28125 674.328125 524.222656 C 674.53125 522.160156 674.632812 520.09375 674.632812 518.023438 C 674.632812 515.949219 674.53125 513.882812 674.328125 511.824219 C 674.125 509.761719 673.824219 507.714844 673.417969 505.683594 C 673.015625 503.652344 672.511719 501.644531 671.910156 499.664062 C 671.308594 497.679688 670.613281 495.730469 669.820312 493.820312 C 669.027344 491.90625 668.140625 490.035156 667.164062 488.207031 C 666.1875 486.382812 665.125 484.605469 663.976562 482.882812 C 662.824219 481.160156 661.589844 479.5 660.277344 477.898438 C 658.964844 476.296875 657.574219 474.765625 656.109375 473.300781 C 654.644531 471.835938 653.113281 470.445312 651.511719 469.132812 C 649.910156 467.816406 648.246094 466.585938 646.523438 465.433594 C 644.804688 464.285156 643.027344 463.21875 641.203125 462.242188 C 639.375 461.265625 637.503906 460.382812 635.589844 459.589844 C 633.675781 458.796875 631.730469 458.101562 629.746094 457.5 C 627.765625 456.898438 625.757812 456.394531 623.726562 455.992188 C 621.695312 455.585938 619.648438 455.285156 617.585938 455.082031 C 615.527344 454.878906 613.460938 454.777344 611.386719 454.777344 Z M 611.386719 454.777344 "/>
<path style=" stroke:none;fill-rule:nonzero;fill:rgb(85.099792%,85.099792%,85.099792%);fill-opacity:1;" d="M 223.621094 596.328125 C 221.550781 596.328125 219.484375 596.429688 217.421875 596.632812 C 215.363281 596.835938 213.316406 597.140625 211.285156 597.542969 C 209.253906 597.945312 207.246094 598.449219 205.261719 599.050781 C 203.28125 599.652344 201.332031 600.347656 199.417969 601.140625 C 197.507812 601.933594 195.636719 602.820312 193.808594 603.796875 C 191.980469 604.773438 190.207031 605.835938 188.484375 606.988281 C 186.761719 608.136719 185.101562 609.371094 183.5 610.683594 C 181.898438 611.996094 180.367188 613.386719 178.902344 614.851562 C 177.4375 616.316406 176.046875 617.851562 174.734375 619.449219 C 173.417969 621.050781 172.1875 622.714844 171.035156 624.4375 C 169.886719 626.160156 168.820312 627.933594 167.84375 629.757812 C 166.867188 631.585938 165.984375 633.457031 165.191406 635.371094 C 164.398438 637.285156 163.703125 639.230469 163.101562 641.214844 C 162.5 643.195312 161.996094 645.203125 161.59375 647.234375 C 161.1875 649.265625 160.882812 651.3125 160.683594 653.375 C 160.480469 655.4375 160.378906 657.503906 160.378906 659.574219 C 160.378906 661.644531 160.480469 663.710938 160.683594 665.773438 C 160.882812 667.835938 161.1875 669.878906 161.59375 671.914062 C 161.996094 673.945312 162.5 675.949219 163.101562 677.933594 C 163.703125 679.914062 164.398438 681.863281 165.191406 683.777344 C 165.984375 685.691406 166.867188 687.5625 167.84375 689.386719 C 168.820312 691.214844 169.886719 692.988281 171.035156 694.710938 C 172.1875 696.433594 173.417969 698.09375 174.734375 699.695312 C 176.046875 701.296875 177.4375 702.832031 178.902344 704.296875 C 180.367188 705.757812 181.898438 707.148438 183.5 708.464844 C 185.101562 709.777344 186.761719 711.007812 188.484375 712.160156 C 190.207031 713.3125 191.980469 714.375 193.808594 715.351562 C 195.636719 716.328125 197.507812 717.210938 199.417969 718.003906 C 201.332031 718.796875 203.28125 719.496094 205.261719 720.097656 C 207.246094 720.699219 209.253906 721.199219 211.285156 721.605469 C 213.316406 722.007812 215.363281 722.3125 217.421875 722.515625 C 219.484375 722.71875 221.550781 722.820312 223.621094 722.820312 C 225.695312 722.820312 227.761719 722.71875 229.820312 722.515625 C 231.882812 722.3125 233.929688 722.007812 235.960938 721.605469 C 237.992188 721.199219 240 720.695312 241.980469 720.097656 C 243.964844 719.496094 245.914062 718.796875 247.824219 718.003906 C 249.738281 717.210938 251.609375 716.328125 253.4375 715.351562 C 255.261719 714.375 257.039062 713.3125 258.761719 712.160156 C 260.484375 711.007812 262.144531 709.777344 263.746094 708.464844 C 265.347656 707.148438 266.878906 705.757812 268.34375 704.296875 C 269.808594 702.832031 271.199219 701.296875 272.511719 699.695312 C 273.828125 698.09375 275.058594 696.433594 276.210938 694.710938 C 277.359375 692.988281 278.425781 691.214844 279.402344 689.386719 C 280.378906 687.5625 281.261719 685.691406 282.054688 683.777344 C 282.847656 681.863281 283.542969 679.914062 284.144531 677.933594 C 284.746094 675.949219 285.25 673.945312 285.652344 671.914062 C 286.058594 669.878906 286.359375 667.835938 286.5625 665.773438 C 286.765625 663.710938 286.867188 661.644531 286.867188 659.574219 C 286.867188 657.503906 286.765625 655.4375 286.5625 653.375 C 286.359375 651.3125 286.058594 649.265625 285.652344 647.234375 C 285.25 645.203125 284.746094 643.195312 284.144531 641.214844 C 283.542969 639.230469 282.847656 637.285156 282.054688 635.371094 C 281.261719 633.457031 280.378906 631.585938 279.402344 629.757812 C 278.425781 627.933594 277.359375 626.160156 276.210938 624.4375 C 275.058594 622.714844 273.828125 621.050781 272.511719 619.449219 C 271.199219 617.851562 269.808594 616.316406 268.34375 614.851562 C 266.878906 613.386719 265.347656 611.996094 263.746094 610.683594 C 262.144531 609.371094 260.484375 608.136719 258.761719 606.988281 C 257.039062 605.835938 255.261719 604.773438 253.4375 603.796875 C 251.609375 602.820312 249.738281 601.933594 247.824219 601.140625 C 245.914062 600.347656 243.964844 599.652344 241.980469 599.050781 C 240 598.449219 237.992188 597.945312 235.960938 597.542969 C 233.929688 597.140625 231.882812 596.835938 229.820312 596.632812 C 227.761719 596.429688 225.695312 596.328125 223.621094 596.328125 Z M 223.621094 596.328125 "/>
<path style=" stroke:none;fill-rule:nonzero;fill:rgb(100%,56.858826%,30.198669%);fill-opacity:1;" d="M 384 596.328125 C 381.929688 596.328125 379.863281 596.429688 377.800781 596.632812 C 375.738281 596.835938 373.691406 597.140625 371.660156 597.542969 C 369.628906 597.945312 367.621094 598.449219 365.640625 599.050781 C 363.660156 599.652344 361.710938 600.347656 359.796875 601.140625 C 357.882812 601.933594 356.011719 602.820312 354.1875 603.796875 C 352.359375 604.773438 350.585938 605.835938 348.863281 606.988281 C 347.140625 608.136719 345.476562 609.371094 343.878906 610.683594 C 342.277344 611.996094 340.742188 613.386719 339.277344 614.851562 C 337.8125 616.316406 336.425781 617.851562 335.109375 619.449219 C 333.796875 621.050781 332.5625 622.714844 331.414062 624.4375 C 330.261719 626.160156 329.199219 627.933594 328.222656 629.757812 C 327.246094 631.585938 326.359375 633.457031 325.570312 635.371094 C 324.777344 637.285156 324.078125 639.230469 323.476562 641.214844 C 322.875 643.195312 322.375 645.203125 321.96875 647.234375 C 321.566406 649.265625 321.261719 651.3125 321.058594 653.375 C 320.855469 655.4375 320.753906 657.503906 320.753906 659.574219 C 320.753906 661.644531 320.855469 663.710938 321.058594 665.773438 C 321.261719 667.835938 321.566406 669.878906 321.96875 671.914062 C 322.375 673.945312 322.875 675.949219 323.476562 677.933594 C 324.078125 679.914062 324.777344 681.863281 325.570312 683.777344 C 326.359375 685.691406 327.246094 687.5625 328.222656 689.386719 C 329.199219 691.214844 330.261719 692.988281 331.414062 694.710938 C 332.5625 696.433594 333.796875 698.09375 335.109375 699.695312 C 336.425781 701.296875 337.8125 702.832031 339.277344 704.296875 C 340.742188 705.757812 342.277344 707.148438 343.878906 708.464844 C 345.476562 709.777344 347.140625 711.007812 348.863281 712.160156 C 350.585938 713.3125 352.359375 714.375 354.1875 715.351562 C 356.011719 716.328125 357.882812 717.210938 359.796875 718.003906 C 361.710938 718.796875 363.660156 719.496094 365.640625 720.097656 C 367.621094 720.699219 369.628906 721.199219 371.660156 721.605469 C 373.691406 722.007812 375.738281 722.3125 377.800781 722.515625 C 379.863281 722.71875 381.929688 722.820312 384 722.820312 C 386.070312 722.820312 388.136719 722.71875 390.199219 722.515625 C 392.261719 722.3125 394.308594 722.007812 396.339844 721.605469 C 398.371094 721.199219 400.378906 720.695312 402.359375 720.097656 C 404.339844 719.496094 406.289062 718.796875 408.203125 718.003906 C 410.117188 717.210938 411.988281 716.328125 413.8125 715.351562 C 415.640625 714.375 417.414062 713.3125 419.136719 712.160156 C 420.859375 711.007812 422.519531 709.777344 424.121094 708.464844 C 425.722656 707.148438 427.257812 705.757812 428.722656 704.296875 C 430.1875 702.832031 431.574219 701.296875 432.890625 699.695312 C 434.203125 698.09375 435.4375 696.433594 436.585938 694.710938 C 437.738281 692.988281 438.800781 691.214844 439.777344 689.386719 C 440.753906 687.5625 441.640625 685.691406 442.429688 683.777344 C 443.222656 681.863281 443.921875 679.914062 444.523438 677.933594 C 445.125 675.949219 445.625 673.945312 446.03125 671.914062 C 446.433594 669.878906 446.738281 667.835938 446.941406 665.773438 C 447.144531 663.710938 447.246094 661.644531 447.246094 659.574219 C 447.246094 657.503906 447.144531 655.4375 446.941406 653.375 C 446.738281 651.3125 446.433594 649.265625 446.03125 647.234375 C 445.625 645.203125 445.125 643.195312 444.523438 641.214844 C 443.921875 639.230469 443.222656 637.285156 442.429688 635.371094 C 441.640625 633.457031 440.753906 631.585938 439.777344 629.757812 C 438.800781 627.933594 437.738281 626.160156 436.585938 624.4375 C 435.4375 622.714844 434.203125 621.050781 432.890625 619.449219 C 431.574219 617.851562 430.1875 616.316406 428.722656 614.851562 C 427.257812 613.386719 425.722656 611.996094 424.121094 610.683594 C 422.519531 609.371094 420.859375 608.136719 419.136719 606.988281 C 417.414062 605.835938 415.640625 604.773438 413.8125 603.796875 C 411.988281 602.820312 410.117188 601.933594 408.203125 601.140625 C 406.289062 600.347656 404.339844 599.652344 402.359375 599.050781 C 400.378906 598.449219 398.371094 597.945312 396.339844 597.542969 C 394.308594 597.140625 392.261719 596.835938 390.199219 596.632812 C 388.136719 596.429688 386.070312 596.328125 384 596.328125 Z M 384 596.328125 "/>
<path style=" stroke:none;fill-rule:nonzero;fill:rgb(85.099792%,85.099792%,85.099792%);fill-opacity:1;" d="M 63.246094 596.328125 C 61.175781 596.328125 59.109375 596.429688 57.046875 596.632812 C 54.984375 596.835938 52.9375 597.140625 50.90625 597.542969 C 48.875 597.945312 46.867188 598.449219 44.886719 599.050781 C 42.90625 599.652344 40.957031 600.347656 39.042969 601.140625 C 37.128906 601.933594 35.257812 602.820312 33.433594 603.796875 C 31.605469 604.773438 29.832031 605.835938 28.109375 606.988281 C 26.386719 608.136719 24.722656 609.371094 23.125 610.683594 C 21.523438 611.996094 19.988281 613.386719 18.523438 614.851562 C 17.058594 616.316406 15.671875 617.851562 14.355469 619.449219 C 13.042969 621.050781 11.808594 622.714844 10.660156 624.4375 C 9.507812 626.160156 8.445312 627.933594 7.46875 629.757812 C 6.492188 631.585938 5.605469 633.457031 4.8125 635.371094 C 4.023438 637.285156 3.324219 639.230469 2.722656 641.214844 C 2.121094 643.195312 1.621094 645.203125 1.214844 647.234375 C 0.8125 649.265625 0.507812 651.3125 0.304688 653.375 C 0.101562 655.4375 0 657.503906 0 659.574219 C 0 661.644531 0.101562 663.710938 0.304688 665.773438 C 0.507812 667.835938 0.8125 669.878906 1.214844 671.914062 C 1.621094 673.945312 2.121094 675.949219 2.722656 677.933594 C 3.324219 679.914062 4.023438 681.863281 4.8125 683.777344 C 5.605469 685.691406 6.492188 687.5625 7.46875 689.386719 C 8.445312 691.214844 9.507812 692.988281 10.660156 694.710938 C 11.808594 696.433594 13.042969 698.09375 14.355469 699.695312 C 15.671875 701.296875 17.058594 702.832031 18.523438 704.296875 C 19.988281 705.757812 21.523438 707.148438 23.125 708.464844 C 24.722656 709.777344 26.386719 711.007812 28.109375 712.160156 C 29.832031 713.3125 31.605469 714.375 33.433594 715.351562 C 35.257812 716.328125 37.128906 717.210938 39.042969 718.003906 C 40.957031 718.796875 42.90625 719.496094 44.886719 720.097656 C 46.867188 720.699219 48.875 721.199219 50.90625 721.605469 C 52.9375 722.007812 54.984375 722.3125 57.046875 722.515625 C 59.109375 722.71875 61.175781 722.820312 63.246094 722.820312 C 65.316406 722.820312 67.382812 722.71875 69.445312 722.515625 C 71.507812 722.3125 73.554688 722.007812 75.585938 721.605469 C 77.617188 721.199219 79.621094 720.695312 81.605469 720.097656 C 83.585938 719.496094 85.535156 718.796875 87.449219 718.003906 C 89.363281 717.210938 91.234375 716.328125 93.058594 715.351562 C 94.886719 714.375 96.660156 713.3125 98.382812 712.160156 C 100.105469 711.007812 101.765625 709.777344 103.367188 708.464844 C 104.96875 707.148438 106.503906 705.757812 107.96875 704.296875 C 109.433594 702.832031 110.820312 701.296875 112.136719 699.695312 C 113.449219 698.09375 114.683594 696.433594 115.832031 694.710938 C 116.984375 692.988281 118.046875 691.214844 119.023438 689.386719 C 120 687.5625 120.882812 685.691406 121.675781 683.777344 C 122.46875 681.863281 123.167969 679.914062 123.769531 677.933594 C 124.371094 675.949219 124.871094 673.945312 125.277344 671.914062 C 125.679688 669.878906 125.984375 667.835938 126.1875 665.773438 C 126.390625 663.710938 126.492188 661.644531 126.492188 659.574219 C 126.492188 657.503906 126.390625 655.4375 126.1875 653.375 C 125.984375 651.3125 125.679688 649.265625 125.277344 647.234375 C 124.871094 645.203125 124.371094 643.195312 123.769531 641.214844 C 123.167969 639.230469 122.46875 637.285156 121.675781 635.371094 C 120.882812 633.457031 120 631.585938 119.023438 629.757812 C 118.046875 627.933594 116.984375 626.160156 115.832031 624.4375 C 114.683594 622.714844 113.449219 621.050781 112.136719 619.449219 C 110.820312 617.851562 109.433594 616.316406 107.96875 614.851562 C 106.503906 613.386719 104.96875 611.996094 103.367188 610.683594 C 101.765625 609.371094 100.105469 608.136719 98.382812 606.988281 C 96.660156 605.835938 94.886719 604.773438 93.058594 603.796875 C 91.234375 602.820312 89.363281 601.933594 87.449219 601.140625 C 85.535156 600.347656 83.585938 599.652344 81.605469 599.050781 C 79.621094 598.449219 77.617188 597.945312 75.585938 597.542969 C 73.554688 597.140625 71.507812 596.835938 69.445312 596.632812 C 67.382812 596.429688 65.316406 596.328125 63.246094 596.328125 Z M 63.246094 596.328125 "/>
<path style=" stroke:none;fill-rule:nonzero;fill:rgb(49.409485%,85.099792%,34.118652%);fill-opacity:1;" d="M 544.378906 596.328125 C 542.304688 596.328125 540.238281 596.429688 538.179688 596.632812 C 536.117188 596.835938 534.070312 597.140625 532.039062 597.542969 C 530.007812 597.945312 528 598.449219 526.019531 599.050781 C 524.035156 599.652344 522.085938 600.347656 520.175781 601.140625 C 518.261719 601.933594 516.390625 602.820312 514.5625 603.796875 C 512.738281 604.773438 510.960938 605.835938 509.238281 606.988281 C 507.515625 608.136719 505.855469 609.371094 504.253906 610.683594 C 502.652344 611.996094 501.121094 613.386719 499.65625 614.851562 C 498.191406 616.316406 496.800781 617.851562 495.488281 619.449219 C 494.171875 621.050781 492.941406 622.714844 491.789062 624.4375 C 490.640625 626.160156 489.574219 627.933594 488.597656 629.757812 C 487.621094 631.585938 486.738281 633.457031 485.945312 635.371094 C 485.152344 637.285156 484.457031 639.230469 483.855469 641.214844 C 483.253906 643.195312 482.75 645.203125 482.347656 647.234375 C 481.941406 649.265625 481.640625 651.3125 481.4375 653.375 C 481.234375 655.4375 481.132812 657.503906 481.132812 659.574219 C 481.132812 661.644531 481.234375 663.710938 481.4375 665.773438 C 481.640625 667.835938 481.941406 669.878906 482.347656 671.914062 C 482.75 673.945312 483.253906 675.949219 483.855469 677.933594 C 484.457031 679.914062 485.152344 681.863281 485.945312 683.777344 C 486.738281 685.691406 487.621094 687.5625 488.597656 689.386719 C 489.574219 691.214844 490.640625 692.988281 491.789062 694.710938 C 492.941406 696.433594 494.171875 698.09375 495.488281 699.695312 C 496.800781 701.296875 498.191406 702.832031 499.65625 704.296875 C 501.121094 705.757812 502.652344 707.148438 504.253906 708.464844 C 505.855469 709.777344 507.515625 711.007812 509.238281 712.160156 C 510.960938 713.3125 512.738281 714.375 514.5625 715.351562 C 516.390625 716.328125 518.261719 717.210938 520.175781 718.003906 C 522.085938 718.796875 524.035156 719.496094 526.019531 720.097656 C 528 720.699219 530.007812 721.199219 532.039062 721.605469 C 534.070312 722.007812 536.117188 722.3125 538.179688 722.515625 C 540.238281 722.71875 542.304688 722.820312 544.378906 722.820312 C 546.449219 722.820312 548.515625 722.71875 550.578125 722.515625 C 552.636719 722.3125 554.683594 722.007812 556.714844 721.605469 C 558.746094 721.199219 560.753906 720.695312 562.738281 720.097656 C 564.71875 719.496094 566.667969 718.796875 568.582031 718.003906 C 570.492188 717.210938 572.363281 716.328125 574.191406 715.351562 C 576.019531 714.375 577.792969 713.3125 579.515625 712.160156 C 581.238281 711.007812 582.898438 709.777344 584.5 708.464844 C 586.101562 707.148438 587.632812 705.757812 589.097656 704.296875 C 590.5625 702.832031 591.953125 701.296875 593.265625 699.695312 C 594.582031 698.09375 595.8125 696.433594 596.964844 694.710938 C 598.113281 692.988281 599.179688 691.214844 600.15625 689.386719 C 601.132812 687.5625 602.015625 685.691406 602.808594 683.777344 C 603.601562 681.863281 604.296875 679.914062 604.898438 677.933594 C 605.5 675.949219 606.003906 673.945312 606.40625 671.914062 C 606.8125 669.878906 607.117188 667.835938 607.316406 665.773438 C 607.519531 663.710938 607.621094 661.644531 607.621094 659.574219 C 607.621094 657.503906 607.519531 655.4375 607.316406 653.375 C 607.117188 651.3125 606.8125 649.265625 606.40625 647.234375 C 606.003906 645.203125 605.5 643.195312 604.898438 641.214844 C 604.296875 639.230469 603.601562 637.285156 602.808594 635.371094 C 602.015625 633.457031 601.132812 631.585938 600.15625 629.757812 C 599.179688 627.933594 598.113281 626.160156 596.964844 624.4375 C 595.8125 622.714844 594.582031 621.050781 593.265625 619.449219 C 591.953125 617.851562 590.5625 616.316406 589.097656 614.851562 C 587.632812 613.386719 586.101562 611.996094 584.5 610.683594 C 582.898438 609.371094 581.238281 608.136719 579.515625 606.988281 C 577.792969 605.835938 576.019531 604.773438 574.191406 603.796875 C 572.363281 602.820312 570.492188 601.933594 568.582031 601.140625 C 566.667969 600.347656 564.71875 599.652344 562.738281 599.050781 C 560.753906 598.449219 558.746094 597.945312 556.714844 597.542969 C 554.683594 597.140625 552.636719 596.835938 550.578125 596.632812 C 548.515625 596.429688 546.449219 596.328125 544.378906 596.328125 Z M 544.378906 596.328125 "/>
<path style=" stroke:none;fill-rule:nonzero;fill:rgb(85.099792%,85.099792%,85.099792%);fill-opacity:1;" d="M 704.753906 596.328125 C 702.683594 596.328125 700.617188 596.429688 698.554688 596.632812 C 696.492188 596.835938 694.445312 597.140625 692.414062 597.542969 C 690.382812 597.945312 688.378906 598.449219 686.394531 599.050781 C 684.414062 599.652344 682.464844 600.347656 680.550781 601.140625 C 678.636719 601.933594 676.765625 602.820312 674.941406 603.796875 C 673.113281 604.773438 671.339844 605.835938 669.617188 606.988281 C 667.894531 608.136719 666.234375 609.371094 664.632812 610.683594 C 663.03125 611.996094 661.496094 613.386719 660.03125 614.851562 C 658.566406 616.316406 657.179688 617.851562 655.863281 619.449219 C 654.550781 621.050781 653.316406 622.714844 652.167969 624.4375 C 651.015625 626.160156 649.953125 627.933594 648.976562 629.757812 C 648 631.585938 647.117188 633.457031 646.324219 635.371094 C 645.53125 637.285156 644.832031 639.230469 644.230469 641.214844 C 643.628906 643.195312 643.128906 645.203125 642.722656 647.234375 C 642.320312 649.265625 642.015625 651.3125 641.8125 653.375 C 641.609375 655.4375 641.507812 657.503906 641.507812 659.574219 C 641.507812 661.644531 641.609375 663.710938 641.8125 665.773438 C 642.015625 667.835938 642.320312 669.878906 642.722656 671.914062 C 643.128906 673.945312 643.628906 675.949219 644.230469 677.933594 C 644.832031 679.914062 645.53125 681.863281 646.324219 683.777344 C 647.117188 685.691406 648 687.5625 648.976562 689.386719 C 649.953125 691.214844 651.015625 692.988281 652.167969 694.710938 C 653.316406 696.433594 654.550781 698.09375 655.863281 699.695312 C 657.179688 701.296875 658.566406 702.832031 660.03125 704.296875 C 661.496094 705.757812 663.03125 707.148438 664.632812 708.464844 C 666.234375 709.777344 667.894531 711.007812 669.617188 712.160156 C 671.339844 713.3125 673.113281 714.375 674.941406 715.351562 C 676.765625 716.328125 678.636719 717.210938 680.550781 718.003906 C 682.464844 718.796875 684.414062 719.496094 686.394531 720.097656 C 688.378906 720.699219 690.382812 721.199219 692.414062 721.605469 C 694.445312 722.007812 696.492188 722.3125 698.554688 722.515625 C 700.617188 722.71875 702.683594 722.820312 704.753906 722.820312 C 706.824219 722.820312 708.890625 722.71875 710.953125 722.515625 C 713.015625 722.3125 715.0625 722.007812 717.09375 721.605469 C 719.125 721.199219 721.132812 720.695312 723.113281 720.097656 C 725.09375 719.496094 727.042969 718.796875 728.957031 718.003906 C 730.871094 717.210938 732.742188 716.328125 734.566406 715.351562 C 736.394531 714.375 738.167969 713.3125 739.890625 712.160156 C 741.613281 711.007812 743.277344 709.777344 744.875 708.464844 C 746.476562 707.148438 748.011719 705.757812 749.476562 704.296875 C 750.941406 702.832031 752.328125 701.296875 753.644531 699.695312 C 754.957031 698.09375 756.191406 696.433594 757.339844 694.710938 C 758.492188 692.988281 759.554688 691.214844 760.53125 689.386719 C 761.507812 687.5625 762.394531 685.691406 763.1875 683.777344 C 763.976562 681.863281 764.675781 679.914062 765.277344 677.933594 C 765.878906 675.949219 766.378906 673.945312 766.785156 671.914062 C 767.1875 669.878906 767.492188 667.835938 767.695312 665.773438 C 767.898438 663.710938 768 661.644531 768 659.574219 C 768 657.503906 767.898438 655.4375 767.695312 653.375 C 767.492188 651.3125 767.1875 649.265625 766.785156 647.234375 C 766.378906 645.203125 765.878906 643.195312 765.277344 641.214844 C 764.675781 639.230469 763.976562 637.285156 763.1875 635.371094 C 762.394531 633.457031 761.507812 631.585938 760.53125 629.757812 C 759.554688 627.933594 758.492188 626.160156 757.339844 624.4375 C 756.191406 622.714844 754.957031 621.050781 753.644531 619.449219 C 752.328125 617.851562 750.941406 616.316406 749.476562 614.851562 C 748.011719 613.386719 746.476562 611.996094 744.875 610.683594 C 743.277344 609.371094 741.613281 608.136719 739.890625 606.988281 C 738.167969 605.835938 736.394531 604.773438 734.566406 603.796875 C 732.742188 602.820312 730.871094 601.933594 728.957031 601.140625 C 727.042969 600.347656 725.09375 599.652344 723.113281 599.050781 C 721.132812 598.449219 719.125 597.945312 717.09375 597.542969 C 715.0625 597.140625 713.015625 596.835938 710.953125 596.632812 C 708.890625 596.429688 706.824219 596.328125 704.753906 596.328125 Z M 704.753906 596.328125 "/>
</g>
</svg>
